<svg width="64" height="64" version="1.1" viewBox="0 0 16.9 16.9" xmlns="http://www.w3.org/2000/svg" xmlns:xlink="http://www.w3.org/1999/xlink">
 <defs>
  <linearGradient id="linearGradient25" x1="8.88" x2="8.88" y1="1.36" y2="15.3" gradientUnits="userSpaceOnUse">
   <stop stop-color="#72ccb4" offset="0"/>
   <stop stop-color="#3aafd5" offset="1"/>
  </linearGradient>
 </defs>
 <rect x="-1.73e-18" y="-1.73e-18" width="16.9" height="16.9" ry="4.23" fill="url(#linearGradient25)"/>
 <text fill="black" font-family="sans-serif" font-size="10.6px" letter-spacing="0px" word-spacing="0px" style="line-height:1.25;shape-inside:url(#rect848);white-space:pre" xml:space="preserve"/>
 <g transform="matrix(1.22 -.0179 .0179 1.22 -2.28 -1.72)" fill="#008000">
  <path d="m9.64 5.96a2.75 5.55 56.3 00-2.29 1.16 2.75 5.55 56.3 00-.00129.00101 2.75 5.55 56.3 00-2.54 2.41 1.16 1.16 0 01.429.193 2.3 4.97 56.3 012.32-2.2 2.3 4.97 56.3 01.0427-.0284 2.3 4.97 56.3 015.41-.845 2.3 4.97 56.3 01.0648.112 1.16 1.16 0 01.619.037 2.75 5.55 56.3 00-.2-.471 2.75 5.55 56.3 00-3.86-.367z" stroke-width=".265"/>
  <circle transform="rotate(-19.1)" cx=".934" cy="11.5" r="1.06" stroke-width=".179"/>
 </g>
 <g transform="matrix(.825 .825 -.825 .825 11.4 -44.7)">
  <g transform="matrix(.743 0 0 .743 6.46 7.5)">
   <path d="m28.5 31.6c-2.28 0-4.13 1.85-4.13 4.13s1.85 4.13 4.13 4.13c2.28 0 4.13-1.85 4.13-4.13s-1.85-4.13-4.13-4.13zm0 .766c1.86 0 3.36 1.5 3.36 3.36 0 1.86-1.5 3.36-3.36 3.36-1.86 0-3.36-1.5-3.36-3.36 0-1.86 1.5-3.36 3.36-3.36z" color="#000000" color-rendering="auto" dominant-baseline="auto" fill="#1a1a1a" image-rendering="auto" shape-rendering="auto" solid-color="#000000" stop-color="#000000" style="font-feature-settings:normal;font-variant-alternates:normal;font-variant-caps:normal;font-variant-east-asian:normal;font-variant-ligatures:normal;font-variant-numeric:normal;font-variant-position:normal;font-variation-settings:normal;inline-size:0;isolation:auto;mix-blend-mode:normal;shape-margin:0;shape-padding:0;text-decoration-color:#000000;text-decoration-line:none;text-decoration-style:solid;text-indent:0;text-orientation:mixed;text-transform:none;white-space:normal"/>
   <path d="m32.3 35.2 8.93-.0856v1.34l-8.93-.0856z" fill="#1a1a1a"/>
   <path d="m28.5 32.4c1.86 0 3.36 1.5 3.36 3.36 0 1.86-1.5 3.36-3.36 3.36-1.86 0-3.36-1.5-3.36-3.36 0-1.86 1.5-3.36 3.36-3.36z" color="#000000" color-rendering="auto" dominant-baseline="auto" fill="#f9f9f9" fill-opacity=".249" image-rendering="auto" shape-rendering="auto" solid-color="#000000" stop-color="#000000" style="font-feature-settings:normal;font-variant-alternates:normal;font-variant-caps:normal;font-variant-east-asian:normal;font-variant-ligatures:normal;font-variant-numeric:normal;font-variant-position:normal;font-variation-settings:normal;inline-size:0;isolation:auto;mix-blend-mode:normal;shape-margin:0;shape-padding:0;text-decoration-color:#000000;text-decoration-line:none;text-decoration-style:solid;text-indent:0;text-orientation:mixed;text-transform:none;white-space:normal"/>
   <path d="m25.7 34.5c-.54 1.34-.103 2.17.253 3.04.0175.0428.0367.0772.097-.0178.209-.329.249-.35.707-.806-.898-.917-.762-1.52-.748-2.59l-.182.185c-.0654.0664-.0966.119-.127.195z" fill="#fff" fill-opacity=".418"/>
  </g>
 </g>
 <g transform="matrix(1.22 -.0179 .0179 1.22 -2.28 -1.72)" fill="#008000">
  <path d="m4.02 11.7a2.75 5.55 56.3 00.244.802 2.75 5.55 56.3 006.15-.789 2.75 5.55 56.3 002.71-2.66 1.16 1.16 0 01-.437-.179 2.3 4.97 56.3 01-2.52 2.46 2.3 4.97 56.3 01-5.41.845 2.3 4.97 56.3 01-.151-.344 1.16 1.16 0 01-.576-.136z" stroke-width=".265"/>
  <circle transform="rotate(-19.1)" cx="9.93" cy="12" r="1.06" stroke-width=".179"/>
 </g>
</svg>
